<svg width="150" height="75" viewBox="0 0 150 75" fill="none" xmlns="http://www.w3.org/2000/svg">
<path fill-rule="evenodd" clip-rule="evenodd" d="M119.597 53.6249L137.5 37.2937L129.02 20.3987L119.597 53.6249Z" fill="#097939"/>
<path fill-rule="evenodd" clip-rule="evenodd" d="M113.567 53.6249L131.47 37.2937L122.99 20.3987L113.567 53.6249Z" fill="#ED752E"/>
<path fill-rule="evenodd" clip-rule="evenodd" d="M28.0126 20.5875L20.4751 47.4312L47.2338 47.6187L54.5838 20.5875H61.3676L52.5551 52.0125C52.2176 53.2125 50.9326 54.1875 49.6863 54.1875H15.3876C13.3076 54.1875 12.0751 52.5625 12.6376 50.5625L21.0426 20.5875H28.0126ZM110.74 20.4H117.524L108.101 54.1875H101.126L110.74 20.4ZM62.1226 34.4775L96.0426 34.29L98.3051 27.1562H63.8176L65.8901 20.5862L102.64 20.2487C104.928 20.2275 106.29 21.9987 105.688 24.2075L102.225 36.8625C101.621 39.07 99.275 40.8587 96.9875 40.8587H66.6451L63.0676 54.75H56.4676L62.1226 34.4775Z" fill="#747474"/>
</svg>
