<svg width="106" height="35" viewBox="0 0 106 35" fill="none" xmlns="http://www.w3.org/2000/svg">
<path fill-rule="evenodd" clip-rule="evenodd" d="M16.0126 0.587474L8.47506 27.4312L35.2338 27.6187L42.5838 0.587474H49.3676L40.5551 32.0125C40.2176 33.2125 38.9326 34.1875 37.6863 34.1875H3.38756C1.30756 34.1875 0.0750595 32.5625 0.637559 30.5625L9.04256 0.587474H16.0126ZM98.7401 0.399975H105.524L96.1013 34.1875H89.1263L98.7401 0.399975ZM50.1226 14.4775L84.0426 14.29L86.3051 7.15623H51.8176L53.8901 0.586225L90.6401 0.248724C92.9276 0.227474 94.2901 1.99872 93.6876 4.20747L90.2251 16.8625C89.6213 19.07 87.275 20.8587 84.9875 20.8587H54.6451L51.0676 34.75H44.4676L50.1226 14.4775Z" fill="#747474"/>
</svg>
