<svg width="897" height="550" viewBox="0 0 897 550" fill="none" xmlns="http://www.w3.org/2000/svg">
<path d="M695.741 544.075C695.741 544.075 805.67 503.117 795.264 427.042C780.977 322.573 696.545 313.807 693.198 259.526C689.487 199.411 706.078 127.577 635.842 91.8621C538.579 42.4086 459.454 159.449 378.679 126.48C228.798 65.3039 134.668 255.44 223.846 372.214C291.385 466.265 258.416 542.471 258.416 542.471L695.741 544.075Z" fill="#DBDFF1"/>
<path d="M40.0342 549.234H894.7C895.929 549.234 896.927 548.236 896.927 547.003C896.927 545.77 895.929 544.773 894.7 544.773H40.0342C38.8031 544.773 37.8053 545.77 37.8053 547.003C37.8053 548.236 38.8031 549.234 40.0342 549.234Z" fill="#0C3066"/>
<path d="M398.844 243.704L463.398 246.067L518.936 247.894L518.808 256.326C499.195 262.942 483.956 264.542 464.676 265.135C444.931 270.759 418.972 273.917 398.976 274.458C381.411 274.532 381.28 243.779 398.844 243.704Z" fill="#F7A594"/>
<path d="M518.941 247.869H542.99C542.99 247.869 542.99 248.822 540.908 249.26C538.826 249.698 530.943 250.903 530.943 250.903C534.15 251.647 533.087 253.495 532.258 255.283C532.258 255.283 530.064 259.774 528.312 260.102C526.56 260.431 516.133 255.95 515.828 255.831C512.117 254.382 514.459 247.836 518.941 247.869Z" fill="#F7A594"/>
<path d="M529.133 259.743C529.1 259.743 529.063 259.73 529.038 259.704C528.989 259.653 528.993 259.572 529.042 259.522C531.883 256.764 532.691 254.044 532.799 253.653C532.687 253.466 532.188 252.712 531.397 252.668C531.388 252.667 531.384 252.667 531.376 252.667C530.993 252.667 530.3 253.329 529.686 253.915C528.964 254.607 528.276 255.262 527.806 255.198C527.661 255.179 527.542 255.099 527.459 254.961C526.833 253.934 527.843 251.187 527.884 251.07L527.913 250.998L527.991 250.988L539.63 249.405C539.701 249.394 539.766 249.445 539.775 249.516C539.783 249.586 539.733 249.651 539.663 249.66L528.102 251.232C527.946 251.672 527.166 253.99 527.678 254.827C527.735 254.92 527.797 254.937 527.839 254.943C528.197 254.983 528.89 254.319 529.508 253.729C530.234 253.037 530.927 252.388 531.409 252.411C532.456 252.469 533.025 253.529 533.05 253.574L533.071 253.617L533.062 253.663C533.054 253.693 532.337 256.685 529.22 259.707C529.195 259.731 529.166 259.743 529.133 259.743Z" fill="#D97B69"/>
<path d="M427.555 243.074C419.811 242.591 396.99 239.171 382.63 240.236C369.473 244.986 371.704 267.674 377.472 271.48C377.431 272.115 402.227 280.204 427.946 273.855C431.958 269.542 431.607 247.723 427.555 243.074Z" fill="#13305C"/>
<path d="M431.336 274.914C427.25 276.172 423.428 276.918 420.649 275.636C418.971 275.644 418.567 241.783 420.245 241.776L430.833 241.731C434.193 241.715 434.696 274.898 431.336 274.914Z" fill="#1D498C"/>
<path d="M273.64 546.505H303.361C303.955 546.158 304.388 545.762 304.635 545.313C305.109 523.209 306.804 512.568 306.804 512.568L286.064 511.722L282.165 528.169C275.458 532.907 267.678 543.074 273.64 546.505Z" fill="#231F20"/>
<path d="M305.633 546.876H270.397C269.504 546.876 269.57 541.977 270.463 541.977L305.497 542.175C306.417 542.175 306.553 546.876 305.633 546.876Z" fill="#231F20"/>
<path d="M301.964 314.571C299.861 330.935 290.867 371.354 291.838 415.8C282.099 472.451 281.026 484.927 279.844 519.862L309.55 520.975C314.304 496.575 324.063 458.065 328.483 420.492C338.086 390.884 344.378 348.685 347.466 315.181C350.583 286.303 309.76 274.631 301.964 314.571Z" fill="#13305C"/>
<path d="M294.376 521.248L293.766 521.24C293.82 517.211 305.892 380.986 318.154 325.754L318.748 325.886C306.494 381.085 294.43 517.224 294.376 521.248Z" fill="#231F20"/>
<path d="M331.857 316.533C336.042 372.891 348.378 420.764 348.378 420.764C345.966 459.215 352.782 496.137 357.635 521.391L385.894 521.139C387.531 496.414 384.035 362.571 376.724 317.176C373.236 277.043 326.815 274.894 331.857 316.533Z" fill="#13305C"/>
<path d="M362.943 521.401C361.677 530.509 360.799 537.617 361.908 545.859L408.123 546.758C408.123 546.758 412.481 542.305 406.416 535.63C400.351 528.951 389.623 532.814 381.995 521.15L362.943 521.401Z" fill="#231F20"/>
<path d="M410.251 546.876H361.195C360.3 546.876 360.3 541.977 361.195 541.977L410.053 542.175C410.973 542.175 411.171 546.876 410.251 546.876Z" fill="#231F20"/>
<path d="M378.97 520.849L369.294 326.221L369.9 326.192L379.577 520.821L378.97 520.849Z" fill="#231F20"/>
<path d="M371.538 348.008L306.043 314.274C308.559 269.951 324.358 237.956 336.068 233.273C364.042 222.084 391.242 234.612 401.962 248.659C406.217 254.237 406.497 279.162 397.954 295.435C393.786 302.886 390.793 307.912 386.509 313.284C382.225 318.656 371.538 348.008 371.538 348.008Z" fill="#13305C"/>
<path d="M378.647 252.717C377.163 248.617 367.754 237.912 366.224 233.488L379.315 213.778L391.404 219.687C394.546 221.998 397.366 224.827 399.518 227.7L393.923 242.541L392.723 245.765C392.27 249.39 387.611 251.228 378.647 252.717Z" fill="#F7A594"/>
<path d="M380.365 220.684C380.46 224.539 383.61 236.201 393.942 242.526L398.783 229.686L380.365 220.684Z" fill="#E6836F"/>
<path d="M418.915 200.288C418.548 205.049 417.612 215.461 415.888 219.86C413.266 226.555 404.525 232.19 398.637 231.471C391.97 230.141 383.848 225.538 380.368 220.019C378.686 216.124 375.841 207.238 375.466 200.109C374.682 185.241 387.728 176.426 400.542 177.403C413.353 178.38 420.053 185.442 418.915 200.288Z" fill="#F7A594"/>
<path d="M376.752 210.167C375.606 205.002 379.474 204.241 382.063 208.774C382.463 205.265 381.671 194.38 386.013 192.187C390.944 189.61 407.098 196.359 418.915 189.782C418.915 189.782 416.742 173.11 392.197 175.014C363.447 180.52 376.752 210.167 376.752 210.167Z" fill="#4D261C"/>
<path d="M381.134 206.969C382.317 209.852 381.46 212.93 379.213 213.843C376.97 214.756 374.191 213.159 373.003 210.276C371.82 207.393 372.682 204.315 374.925 203.402C377.168 202.488 379.947 204.086 381.134 206.969Z" fill="#F7A594"/>
<path d="M418.956 190.437C416.437 188.73 379.263 191.708 379.379 194.436C379.379 194.436 403.329 201.922 422.126 199.484C432.389 198.154 418.956 190.437 418.956 190.437Z" fill="#13305C"/>
<path d="M373.692 195.054L419.144 190.468L419.52 184.345L371.486 188.825C371.729 191.043 372.533 193.616 373.692 195.054Z" fill="#1D498C"/>
<path d="M369.916 189.72C364.997 190.044 363.468 186.63 369.483 182.881C378.768 177.099 389.657 158.355 400.971 157.827C408.764 157.463 411.547 167.316 419.298 175.286C422.811 178.902 424.431 182.051 421.974 184.408C416.053 186.534 375.066 189.381 369.916 189.72Z" fill="#13305C"/>
<path d="M407.149 168.076C407.14 167.93 407.136 167.857 407.136 167.823C406.093 167.656 405.079 167.337 404.16 166.906C403.244 166.476 402.432 165.934 401.793 165.326C401.789 165.329 401.785 165.332 401.785 165.336C401.504 165.675 401.179 166.003 400.82 166.313C400.337 166.725 399.789 167.101 399.199 167.435C398.903 167.603 398.598 167.763 398.28 167.906C397.81 168.118 397.315 168.3 396.808 168.445C396.816 168.531 396.833 168.859 396.899 169.945C396.915 170.163 396.928 170.41 396.944 170.692C396.957 170.834 396.965 170.983 396.973 171.142C397.002 171.619 397.035 172.177 397.076 172.832C397.13 173.706 397.336 174.487 397.641 175.181C397.744 175.412 397.855 175.634 397.975 175.846C398.342 176.483 398.787 177.034 399.257 177.507C399.723 177.98 400.222 178.373 400.684 178.694C401.306 179.121 401.875 179.417 402.263 179.598C402.457 179.688 402.601 179.749 402.688 179.783C402.898 179.661 403.467 179.332 404.139 178.793C404.407 178.577 404.691 178.329 404.976 178.046C405.12 177.905 405.264 177.756 405.405 177.598C406.534 176.336 407.545 174.539 407.404 172.211C407.244 169.591 407.178 168.51 407.149 168.076Z" fill="#F7BD0C"/>
<path d="M466.89 336.15C466.993 337.996 465.574 339.577 463.719 339.681C461.864 339.784 460.276 338.371 460.173 336.524C460.07 334.678 461.489 333.097 463.344 332.994C465.199 332.89 466.787 334.303 466.89 336.15Z" fill="white"/>
<path d="M404.039 216.148C402.848 216.148 402.039 215.778 401.99 215.755C401.866 215.697 401.817 215.553 401.874 215.431C401.928 215.31 402.077 215.258 402.196 215.314C402.213 215.321 403.899 216.086 405.944 215.307C406.068 215.259 406.158 215.158 406.228 214.996C406.954 213.243 404.225 206.411 403.116 203.926C403.058 203.803 403.116 203.659 403.235 203.604C403.359 203.549 403.503 203.604 403.557 203.727C403.726 204.1 407.63 212.878 406.678 215.182C406.558 215.471 406.369 215.665 406.117 215.762C405.358 216.051 404.645 216.148 404.039 216.148Z" fill="#BF5847"/>
<path d="M404.315 224.535C404.282 224.535 404.249 224.529 404.22 224.516C404.096 224.463 404.039 224.32 404.092 224.196C404.257 223.812 404.232 223.465 404.026 223.134C402.439 220.624 391.669 220.188 391.562 220.184C391.426 220.179 391.323 220.066 391.327 219.931C391.331 219.797 391.447 219.695 391.579 219.697C392.032 219.714 402.711 220.149 404.438 222.874C404.735 223.343 404.768 223.853 404.537 224.388C404.5 224.48 404.41 224.535 404.315 224.535Z" fill="#BF5847"/>
<path d="M395.039 203.992C395.039 204.793 394.552 205.443 393.95 205.443C393.348 205.443 392.862 204.793 392.862 203.992C392.862 203.192 393.348 202.542 393.95 202.542C394.552 202.542 395.039 203.192 395.039 203.992Z" fill="#4F241D"/>
<path d="M390.012 200.453C390.012 200.453 394.588 201.843 397.899 204.144C398.728 203.407 394.18 199.268 391.838 198.705L390.012 200.453Z" fill="#4F241D"/>
<path d="M413.126 204.814C413.126 205.616 412.639 206.265 412.037 206.265C411.435 206.265 410.949 205.616 410.949 204.814C410.949 204.013 411.435 203.364 412.037 203.364C412.639 203.364 413.126 204.013 413.126 204.814Z" fill="#4F241D"/>
<path d="M416.227 202.517C416.227 202.517 411.457 202.848 407.713 204.349C407.074 203.446 412.434 200.43 414.837 200.404L416.227 202.517Z" fill="#4F241D"/>
<path d="M381.825 246.992L381.28 252.104L384.154 248.084L382.542 256.397C382.596 254.889 381.05 252.579 381.05 252.579C381.05 252.579 378.036 252.212 375.323 254.074L381.825 246.992Z" fill="#231F20"/>
<path d="M369.325 228.737C369.906 234.101 377.538 242.225 381.797 246.997L375.295 254.078C370.323 248.1 363.693 240.703 364.678 230.959C365.111 228.411 366.794 227.88 369.325 228.737Z" fill="#1D498C"/>
<path d="M394.185 242.224C393.092 243.374 389.686 248.425 384.17 248.053L382.557 256.366C390.329 256.614 392.506 253.754 394.56 248.431C395.368 246.309 395.986 243.881 394.185 242.224Z" fill="#1D498C"/>
<path d="M343.726 335.736C343.685 335.736 343.64 335.728 343.594 335.707C343.446 335.637 343.38 335.456 343.454 335.303C346.484 328.937 350.344 321.499 354.43 313.62C365.566 292.16 378.187 267.838 380.805 252.507C380.834 252.342 380.99 252.229 381.155 252.259C381.32 252.287 381.431 252.444 381.403 252.609C378.768 268.032 366.127 292.403 354.97 313.901C350.884 321.772 347.029 329.21 344.002 335.563C343.949 335.675 343.842 335.736 343.726 335.736Z" fill="#231F20"/>
<path d="M304.256 310.877C316.946 318.62 379.46 324.85 382.095 323.835C385.599 324.062 385.142 336.72 382.4 339.004C378.203 342.501 298.657 329.018 297.383 325.241C296.109 321.465 300.673 308.687 304.256 310.877Z" fill="#231F20"/>
<path d="M392.366 280.271C392.428 280.143 392.457 280.081 392.473 280.048C391.657 279.425 390.935 278.679 390.354 277.888C389.768 277.096 389.323 276.255 389.059 275.439C389.055 275.439 389.051 275.443 389.047 275.443C388.647 275.603 388.218 275.735 387.765 275.83C387.163 275.962 386.519 276.028 385.86 276.04C385.53 276.049 385.196 276.045 384.858 276.02C384.355 275.983 383.848 275.909 383.349 275.801C383.312 275.876 383.176 276.164 382.73 277.125C382.64 277.319 382.541 277.537 382.421 277.785C382.363 277.912 382.302 278.044 382.24 278.184C382.042 278.605 381.811 279.1 381.543 279.677C381.184 280.448 380.999 281.211 380.937 281.945C380.916 282.192 380.908 282.431 380.916 282.67C380.933 283.384 381.056 284.064 381.238 284.682C381.423 285.305 381.663 285.87 381.914 286.36C382.248 287.016 382.594 287.531 382.842 287.865C382.965 288.03 383.064 288.154 383.122 288.22C383.357 288.216 383.996 288.195 384.821 288.047C385.151 287.985 385.509 287.902 385.885 287.795C386.074 287.742 386.264 287.68 386.458 287.61C388.012 287.053 389.707 285.985 390.667 283.928C391.743 281.611 392.189 280.658 392.366 280.271Z" fill="#F7BD0C"/>
<path d="M386.894 296.304L374.117 290.058L375.263 287.716L388.04 293.962L386.894 296.304Z" fill="#1D498C"/>
<path d="M346.677 355.98H342.327L342.418 355.605C344.368 347.35 344.636 327.271 344.64 327.069L345.247 327.077C345.242 327.279 344.983 346.839 343.094 355.37H346.178C346.578 353.349 349.283 339.125 348.603 327.584L349.209 327.547C349.947 340.02 346.76 355.58 346.727 355.737L346.677 355.98Z" fill="#231F20"/>
<path d="M313.424 282.125C313.424 282.125 307.779 314.495 313.634 325.896C319.683 337.675 375.294 340.112 375.294 340.112L377.249 323.372L338.908 313.737L347.175 288.936L313.424 282.125Z" fill="#F7A594"/>
<path d="M327.78 240.459C327.78 240.459 311.671 260.205 311.086 288.443C332.175 303.743 346.025 292.652 346.025 292.652C346.025 292.652 356.637 264.41 354.238 250.683C351.838 236.958 332.55 235.463 327.78 240.459Z" fill="#13305C"/>
<path d="M311.794 279.988C314.656 283.451 347.393 290.147 348.061 286.337C348.98 289.974 348.795 293.524 345.867 296.843C345.047 302.137 309.555 296.645 310.376 291.351C308.306 288.081 308.78 284.292 311.794 279.988Z" fill="#1D498C"/>
<path d="M348.002 286.654C347.949 286.654 347.895 286.638 347.85 286.609C347.706 286.526 347.656 286.341 347.739 286.197C350.093 282.189 352.06 276.78 353.14 271.354C353.173 271.189 353.334 271.081 353.499 271.114C353.663 271.147 353.771 271.304 353.738 271.469C352.645 276.961 350.649 282.44 348.262 286.502C348.209 286.596 348.106 286.654 348.002 286.654Z" fill="#231F20"/>
<path d="M410.096 253.405C396.581 267.691 375.067 279.351 352.081 284.262C352.064 285.787 351.99 294.248 351.648 333.24C351.19 385.252 400.811 410.885 408.513 414.818C416.009 411.421 466.479 386.258 466.937 334.246C467.279 295.254 467.353 286.793 467.37 285.268C444.47 279.957 423.356 267.922 410.096 253.405Z" fill="white"/>
<path d="M409.888 262.777C396.661 274.751 378.371 284.122 358.284 289.19L357.896 333.261C357.719 353.427 365.685 371.704 381.583 387.586C392.027 398.022 403.027 404.516 408.61 407.435C408.853 407.315 409.117 407.179 409.376 407.047L409.999 262.881C409.962 262.848 409.925 262.81 409.888 262.777Z" fill="#029F25"/>
<path d="M410.037 262.887L409.414 407.053C415.248 404.064 425.849 397.88 436.02 388.067C452.195 372.461 460.486 354.328 460.664 334.162L461.051 290.091C441.112 284.694 423.041 275.038 410.037 262.887Z" fill="#00B929"/>
<path d="M412.029 344.542L411.987 354.219C411.979 355.509 410.924 356.573 409.629 356.569C408.31 356.561 407.262 355.489 407.267 354.198L407.312 344.501C405.316 343.598 403.923 341.582 403.931 339.265C403.943 336.098 406.545 333.554 409.728 333.567C412.907 333.579 415.467 336.148 415.451 339.314C415.443 341.652 414.049 343.656 412.029 344.542ZM386.433 326.302L386.284 360.445C386.268 364.246 432.9 364.444 432.916 360.643L433.065 326.5L386.433 326.302Z" fill="white"/>
<path d="M428.914 324.041L424.193 324.02L424.206 321.724C424.239 313.758 417.757 307.248 409.754 307.215C401.752 307.178 395.216 313.63 395.179 321.596L395.171 323.897L390.45 323.876L390.458 321.58C390.504 311.02 399.17 302.469 409.775 302.515C420.379 302.56 428.972 311.185 428.927 321.74L428.914 324.041Z" fill="white"/>
<path d="M40.5502 140.332H82.0198V88.2134H40.5502V140.332ZM83.4493 141.761H39.1207V86.7839H83.4493V141.761Z" fill="#B3D0FF"/>
<path d="M90.7893 95.4438H47.8903V148.991H90.7893V95.4438Z" fill="#DBDFF1"/>
<path d="M76.7673 104.213H54.577V107.696H76.7673V104.213Z" fill="#2A59FF"/>
<path d="M83.3295 112.435H54.577V115.917H83.3295V112.435Z" fill="#2A59FF"/>
<path d="M83.3295 120.601H54.577V124.085H83.3295V120.601Z" fill="#2A59FF"/>
<path d="M83.3295 128.768H54.577V132.251H83.3295V128.768Z" fill="#2A59FF"/>
<path d="M83.3295 136.935H54.577V140.417H83.3295V136.935Z" fill="#2A59FF"/>
<path fill-rule="evenodd" clip-rule="evenodd" d="M24.6569 306.943C17.2296 302.445 14.8436 292.768 19.3225 285.305C23.7944 277.859 33.4307 275.464 40.858 279.962C48.2737 284.452 50.6601 294.133 46.1879 301.579C41.709 309.038 32.073 311.437 24.6569 306.943ZM57.5077 308.436C59.5424 305.046 60.8144 301.385 61.3529 297.687L62.5217 297.86L64.8294 298.202H64.8595C65.4821 293.976 65.2702 289.7 64.253 285.615L60.8197 286.468C59.8982 282.77 58.2758 279.249 55.9628 276.144L58.8085 274.021C56.3739 270.701 53.2486 267.799 49.5172 265.539L47.6841 268.59C44.2983 266.541 40.6646 265.271 36.9852 264.731L37.4977 261.208C33.2881 260.582 29.0236 260.807 24.9624 261.816L25.813 265.267C22.1319 266.191 18.6257 267.819 15.5346 270.145L13.4191 267.283C10.1137 269.733 7.22423 272.87 4.97428 276.618L8.01463 278.457C5.97248 281.858 4.70753 285.507 4.16906 289.206L1.68863 288.839L0.673947 288.694L0.662408 288.69C0.0398282 292.917 0.263288 297.2 1.2689 301.278L4.70258 300.425C5.62366 304.123 7.25763 307.652 9.57066 310.753L6.72493 312.88C9.15959 316.199 12.2737 319.094 16.0047 321.353L17.8378 318.302C21.2236 320.351 24.8688 321.629 28.5486 322.17L28.1454 324.907L28.0353 325.691C32.2454 326.317 36.4983 326.086 40.5595 325.076L39.7093 321.629C43.3895 320.702 46.9032 319.061 50.0054 316.744L52.1209 319.605C55.4148 317.152 58.2977 314.022 60.5476 310.275L57.5077 308.436Z" stroke="#8676FF" stroke-width="0.00134986" stroke-miterlimit="2"/>
<path d="M102.558 456.654C88.5738 461.132 72.8006 456.023 64.2964 443.114C54.0469 427.558 58.2945 406.6 73.8079 396.293C82.6345 390.425 93.2002 389.304 102.558 392.289V363.114C95.2519 361.898 87.7368 361.898 80.3512 363.391L78.8731 355.899C70.2283 357.581 61.7537 360.991 53.9612 366.17L58.1626 372.544C51.0911 377.244 45.2958 383.148 40.8656 389.807L34.5445 385.568C29.4629 393.184 25.9706 401.685 24.1808 410.517L31.6147 412.038C30.0112 420.049 29.9271 428.374 31.5627 436.525L24.1029 438.009C25.7773 446.693 29.1714 455.203 34.3277 463.032L40.6776 458.81C45.3568 465.91 51.2317 471.732 57.8641 476.185L54.8732 480.671L53.6672 482.514L53.6433 482.53C61.2248 487.634 69.6919 491.143 78.4843 492.941L79.9978 485.474C87.374 486.962 95.0296 487.066 102.558 485.787V456.654Z" fill="#604CF9"/>
<path d="M436.42 72.2862C436.527 71.4958 436.602 70.6955 436.602 69.8763C436.602 60.0226 428.615 52.0346 418.761 52.0346C411.369 52.0346 405.027 56.53 402.318 62.9368C400.117 60.975 397.222 59.7732 394.039 59.7732C387.154 59.7732 381.575 65.3549 381.575 72.2408H379.246C372.624 72.2408 367.211 77.6581 367.211 84.2789C367.211 90.8993 372.624 96.3166 379.246 96.3166H435.534C442.155 96.3166 447.573 90.8993 447.573 84.2789C447.573 77.9579 442.63 72.7464 436.42 72.2862Z" fill="#D9E0FB"/>
<path d="M113.473 30.7727C113.231 -2.02743 175.461 -6.84232 174.729 10.4139L286.442 10.8027C299.371 10.9841 309.806 22.6849 309.761 36.9284L308.289 512.671C308.248 526.611 297.858 537.904 285.082 537.908L166.746 538.506C165.61 540.827 163.473 542.934 160.101 544.678C126.988 544.414 111.937 531.373 111.808 514.579C110.573 511.487 112.139 36.9403 113.473 30.7727Z" fill="#8676FF"/>
<path d="M124.858 225.979C127.601 226.041 129.865 223.874 129.888 221.161L130.949 96.9486C130.973 94.196 128.73 91.8909 125.966 91.8278C123.202 91.7639 120.921 93.9652 120.9 96.7177L119.91 220.933C119.888 223.646 122.115 225.916 124.858 225.979Z" fill="#604CF9"/>
<path d="M162.105 544.759L307.708 544.594C320.935 544.615 331.7 533.025 331.75 518.693L333.523 29.3946C333.572 14.7409 322.766 2.73001 309.378 2.57663L163.353 0.679609C149.855 0.524582 138.886 12.3417 138.861 27.0647L137.997 518.656C137.972 533.054 148.768 544.734 162.105 544.759Z" fill="#B3D1FF"/>
<path d="M159.08 541.317C159.961 541.441 160.863 541.503 161.759 541.503L307.325 541.107C318.697 541.115 328.044 530.948 328.085 518.438L329.817 29.6753C329.858 16.8844 320.478 6.35452 308.97 6.21021L162.99 4.07777C162.654 4.07365 162.315 4.07777 161.982 4.09056C156.584 4.29671 151.552 6.71322 147.804 10.8878C143.976 15.1519 141.866 20.8244 141.855 26.8675L140.957 518.954C140.936 530.28 148.701 539.891 159.08 541.317Z" fill="#0D0D0D"/>
<path d="M149.387 29.4531L148.411 519.732L321.023 519.72L322.677 30.8747L149.387 29.4531Z" fill="#383874"/>
<path d="M304.358 224.997H167.759C163.147 224.997 159.373 221.223 159.373 216.611V216.135C159.373 211.522 163.147 207.749 167.759 207.749H304.358C308.972 207.749 312.744 211.522 312.744 216.135V216.611C312.744 221.223 308.972 224.997 304.358 224.997Z" fill="white"/>
<path d="M304.358 252.786H167.759C163.147 252.786 159.373 249.012 159.373 244.4V243.923C159.373 239.311 163.147 235.537 167.759 235.537H304.358C308.972 235.537 312.744 239.311 312.744 243.923V244.4C312.744 249.012 308.972 252.786 304.358 252.786Z" fill="white"/>
<path d="M279.74 134.43C279.74 159.049 260.181 179.006 236.054 179.006C211.927 179.006 192.368 159.049 192.368 134.43C192.368 109.811 211.927 89.8533 236.054 89.8533C260.181 89.8533 279.74 109.811 279.74 134.43Z" fill="#8676FF"/>
<path d="M236.184 132.61C240.448 132.61 244.387 130.49 246.902 127.253C248.76 124.911 249.855 121.897 249.855 118.549C249.855 110.849 243.73 104.487 236.184 104.487C228.529 104.487 222.404 110.849 222.404 118.549C222.404 121.897 223.496 124.911 225.357 127.253C227.872 130.49 231.808 132.61 236.184 132.61Z" fill="white"/>
<path d="M260.333 157.718C260.333 166.591 211.771 166.591 211.771 157.718L211.786 147.377C213.705 133.241 256.386 132.647 260.342 147.377L260.333 157.718Z" fill="white"/>
<path d="M219.03 218.894H189.129C187.776 218.894 186.668 217.787 186.668 216.433V216.294C186.668 214.94 187.776 213.833 189.129 213.833H219.03C220.383 213.833 221.491 214.94 221.491 216.294V216.433C221.491 217.787 220.383 218.894 219.03 218.894Z" fill="#DBDFF1"/>
<path d="M291.762 246.628H189.129C187.776 246.628 186.668 245.52 186.668 244.167V244.027C186.668 242.674 187.776 241.566 189.129 241.566H291.762C293.115 241.566 294.224 242.674 294.224 244.027V244.167C294.224 245.52 293.115 246.628 291.762 246.628Z" fill="#DBDFF1"/>
<path d="M258.711 218.894H228.811C227.458 218.894 226.35 217.787 226.35 216.433V216.294C226.35 214.94 227.458 213.833 228.811 213.833H258.711C260.065 213.833 261.173 214.94 261.173 216.294V216.433C261.173 217.787 260.065 218.894 258.711 218.894Z" fill="#DBDFF1"/>
<path d="M304.358 306.885H167.759C163.147 306.885 159.373 303.108 159.373 298.499V298.02C159.373 293.411 163.147 289.634 167.759 289.634H304.358C308.972 289.634 312.744 293.411 312.744 298.02V298.499C312.744 303.108 308.972 306.885 304.358 306.885Z" fill="white"/>
<path d="M304.358 334.619H167.759C163.147 334.619 159.373 330.846 159.373 326.232V325.754C159.373 321.145 163.147 317.368 167.759 317.368H304.358C308.972 317.368 312.744 321.145 312.744 325.754V326.232C312.744 330.846 308.972 334.619 304.358 334.619Z" fill="white"/>
<path d="M219.03 300.781H189.129C187.776 300.781 186.668 299.672 186.668 298.32V298.179C186.668 296.827 187.776 295.718 189.129 295.718H219.03C220.383 295.718 221.491 296.827 221.491 298.179V298.32C221.491 299.672 220.383 300.781 219.03 300.781Z" fill="#DBDFF1"/>
<path d="M258.711 300.781H228.811C227.458 300.781 226.35 299.672 226.35 298.32V298.179C226.35 296.827 227.458 295.718 228.811 295.718H258.711C260.065 295.718 261.173 296.827 261.173 298.179V298.32C261.173 299.672 260.065 300.781 258.711 300.781Z" fill="#DBDFF1"/>
<path d="M291.007 300.781H268.603C267.249 300.781 266.142 299.672 266.142 298.32V298.179C266.142 296.827 267.249 295.718 268.603 295.718H291.007C292.362 295.718 293.467 296.827 293.467 298.179V298.32C293.467 299.672 292.362 300.781 291.007 300.781Z" fill="#DBDFF1"/>
<path d="M200.121 272.273C200.121 277.002 196.496 280.836 192.024 280.836C187.553 280.836 183.928 277.002 183.928 272.273C183.928 267.544 187.553 263.709 192.024 263.709C196.496 263.709 200.121 267.544 200.121 272.273Z" fill="white"/>
<path d="M194.822 272.28C194.822 273.958 193.536 275.318 191.951 275.318C190.365 275.318 189.08 273.958 189.08 272.28C189.08 270.602 190.365 269.245 191.951 269.245C193.536 269.245 194.822 270.602 194.822 272.28Z" fill="#DBDFF1"/>
<path d="M250.436 272.273C250.436 277.002 246.811 280.836 242.339 280.836C237.868 280.836 234.243 277.002 234.243 272.273C234.243 267.544 237.868 263.709 242.339 263.709C246.811 263.709 250.436 267.544 250.436 272.273Z" fill="white"/>
<path d="M245.247 272.28C245.247 273.958 243.961 275.318 242.375 275.318C240.79 275.318 239.504 273.958 239.504 272.28C239.504 270.602 240.79 269.245 242.375 269.245C243.961 269.245 245.247 270.602 245.247 272.28Z" fill="#DBDFF1"/>
<path d="M226.289 274.801H205.462C204.109 274.801 203.001 273.692 203.001 272.34V272.2C203.001 270.847 204.109 269.738 205.462 269.738H226.289C227.642 269.738 228.75 270.847 228.75 272.2V272.34C228.75 273.692 227.642 274.801 226.289 274.801Z" fill="#604CF9"/>
<path d="M279.564 274.801H258.737C257.384 274.801 256.276 273.692 256.276 272.34V272.2C256.276 270.847 257.384 269.738 258.737 269.738H279.564C280.917 269.738 282.025 270.847 282.025 272.2V272.34C282.025 273.692 280.917 274.801 279.564 274.801Z" fill="#604CF9"/>
<path d="M286.92 431.656H185.184C182.977 431.656 181.187 429.867 181.187 427.657V366.252C181.187 364.046 182.977 362.257 185.184 362.257H286.92C289.127 362.257 290.916 364.046 290.916 366.252V427.657C290.916 429.867 289.127 431.656 286.92 431.656Z" fill="#8676FF"/>
<path d="M290.916 375.356H181.187V387.334H290.916V375.356Z" fill="#604CF9"/>
<path d="M206.412 418.327H190.278C189.253 418.327 188.422 419.209 188.422 420.294C188.422 421.378 189.253 422.256 190.278 422.256H206.412C207.438 422.256 208.269 421.378 208.269 420.294C208.269 419.209 207.438 418.327 206.412 418.327Z" fill="#D1F5FF"/>
<path d="M231.186 418.327H215.053C214.027 418.327 213.196 419.209 213.196 420.294C213.196 421.378 214.027 422.256 215.053 422.256H231.186C232.212 422.256 233.043 421.378 233.043 420.294C233.043 419.209 232.212 418.327 231.186 418.327Z" fill="#D1F5FF"/>
<path d="M255.96 418.327H239.827C238.801 418.327 237.97 419.209 237.97 420.294C237.97 421.378 238.801 422.256 239.827 422.256H255.96C256.986 422.256 257.817 421.378 257.817 420.294C257.817 419.209 256.986 418.327 255.96 418.327Z" fill="#D1F5FF"/>
<path d="M280.844 418.327H264.71C263.684 418.327 262.853 419.209 262.853 420.294C262.853 421.378 263.684 422.256 264.71 422.256H280.844C281.869 422.256 282.7 421.378 282.7 420.294C282.7 419.209 281.869 418.327 280.844 418.327Z" fill="#D1F5FF"/>
<path d="M189.485 365.765C188.353 365.765 187.435 366.734 187.435 367.933V368.692C187.435 369.892 188.353 370.861 189.485 370.861C190.617 370.861 191.534 369.892 191.534 368.692V367.933C191.534 366.734 190.617 365.765 189.485 365.765Z" fill="#D1F5FF"/>
<path d="M193.903 368.313C193.903 369.719 194.982 370.861 196.312 370.861H204.852C206.183 370.861 207.262 369.719 207.262 368.313C207.262 366.903 206.183 365.765 204.852 365.765H196.312C194.982 365.765 193.903 366.903 193.903 368.313Z" fill="#D1F5FF"/>
<path d="M192.919 393.772H203.767C205.585 393.772 207.059 395.248 207.059 397.067V407.308C207.059 409.127 205.585 410.599 203.767 410.599H192.919C191.101 410.599 189.628 409.127 189.628 407.308V397.067C189.628 395.248 191.101 393.772 192.919 393.772Z" fill="#604CF9"/>
<path d="M295.051 328.46H192.417C191.064 328.46 189.957 327.351 189.957 325.999V325.858C189.957 324.506 191.064 323.397 192.417 323.397H295.051C296.403 323.397 297.512 324.506 297.512 325.858V325.999C297.512 327.351 296.403 328.46 295.051 328.46Z" fill="#DBDFF1"/>
<path d="M197.695 493.67C197.695 496.23 195.619 498.304 193.058 498.304C190.498 498.304 188.422 496.23 188.422 493.67C188.422 491.109 190.498 489.031 193.058 489.031C195.619 489.031 197.695 491.109 197.695 493.67Z" fill="#604CF9"/>
<path d="M219.399 493.67C219.399 496.23 217.323 498.304 214.763 498.304C212.202 498.304 210.127 496.23 210.127 493.67C210.127 491.109 212.202 489.031 214.763 489.031C217.323 489.031 219.399 491.109 219.399 493.67Z" fill="#604CF9"/>
<path d="M241.213 493.67C241.213 496.23 239.138 498.304 236.577 498.304C234.016 498.304 231.941 496.23 231.941 493.67C231.941 491.109 234.016 489.031 236.577 489.031C239.138 489.031 241.213 491.109 241.213 493.67Z" fill="#604CF9"/>
<path d="M263.028 493.67C263.028 496.23 260.952 498.304 258.391 498.304C255.831 498.304 253.755 496.23 253.755 493.67C253.755 491.109 255.831 489.031 258.391 489.031C260.952 489.031 263.028 491.109 263.028 493.67Z" fill="#604CF9"/>
<path d="M284.842 493.67C284.842 496.23 282.766 498.304 280.206 498.304C277.645 498.304 275.569 496.23 275.569 493.67C275.569 491.109 277.645 489.031 280.206 489.031C282.766 489.031 284.842 491.109 284.842 493.67Z" fill="#604CF9"/>
<path d="M649.461 430.076L635.043 424.798C629.757 421.867 624.455 431.428 629.736 434.36L642.695 442.297C646.059 444.16 652.825 431.935 649.461 430.076Z" fill="#B3B3B3"/>
<path d="M738.378 388.862C725.3 405.354 714.881 426.65 703.105 447.12C691.231 440.235 679.01 438.977 649.592 428.641C643.309 428.299 637.475 439.423 642.497 444.288C642.497 444.288 689.161 483.078 708.404 480.064C727.642 477.054 766.439 421.331 773.082 412.602C785.274 396.584 760.725 366.651 738.378 388.862Z" fill="#0D0D0D"/>
<path d="M648.737 429.878L642.985 427.754C640.19 427.878 635.733 435.72 637.877 439.348L643.385 442.799L648.737 429.878Z" fill="#0D0D0D"/>
<path d="M616.077 437.57L627.976 436.065C629.802 425.535 639.574 430.573 638.63 425.729C637.686 420.88 630.528 412.956 630.528 412.956L600.603 434.911C600.603 434.911 599.469 443.619 616.077 437.57Z" fill="#0D0D0D"/>
<path d="M616.046 437.558C620.829 437.212 625.872 437.336 628.593 438.614C631.52 439.991 634.093 433.93 629.714 432.644C625.336 431.357 618.953 433.27 616.046 437.558Z" fill="#0D0D0D"/>
<path d="M834.171 520.143L843.642 532.224C846.59 537.501 856.139 532.166 853.191 526.892L845.996 513.521C844.12 510.169 832.291 516.787 834.171 520.143Z" fill="#B3B3B3"/>
<path d="M753.105 421.72C766.105 438.274 794.323 465.824 794.323 465.824C794.323 465.824 816.278 506.444 833.323 521.304C838.481 524.903 849.3 518.525 847.597 511.742C847.597 511.742 822.632 454.811 815.817 444.042C809.001 433.268 791.206 401.97 784.263 393.481C771.515 377.904 736.7 394.821 753.105 421.72Z" fill="#0D0D0D"/>
<path d="M833.969 520.719C833.969 520.719 835.651 524.883 837.577 525.37C839.506 525.852 848.536 520.352 848.738 517.808C848.94 515.264 846.441 512.654 846.441 512.654L833.969 520.719Z" fill="#0D0D0D"/>
<path d="M863.467 522.939L851.477 523.331C848.677 533.647 839.417 527.718 839.907 532.632C840.394 537.547 846.785 546.098 846.785 546.098L878.623 527.025C878.623 527.025 880.561 518.461 863.467 522.939Z" fill="#0D0D0D"/>
<path d="M863.485 522.949C858.69 522.85 853.68 522.252 851.091 520.727C848.304 519.086 845.179 524.879 849.417 526.569C853.656 528.255 860.191 526.948 863.485 522.949Z" fill="#0D0D0D"/>
<path d="M792.21 405.052C798.943 384.024 805.136 358.606 805.082 345.466C804.979 320.059 772.733 318.872 761.089 329.258C751.297 337.343 742.42 356.334 735.497 380.965C728.731 388.671 727.033 396.509 727.998 404.116C735.337 412.123 776.316 419.074 792.21 405.052Z" fill="#FF708B"/>
<path d="M809.911 342.9L833.507 360.794C834.555 355.393 850.767 337.532 858.093 336.332L866.657 343.494C872.289 350.474 846.474 384.398 836.138 387.078C819.497 393.296 787.263 362.171 787.263 362.171C772.363 351.641 789.844 324.626 809.911 342.9Z" fill="#FF708B"/>
<path d="M866.548 346.624C866.548 346.624 869.842 346.439 869.434 343.07C869.133 340.555 858.236 331.596 854.876 336.42C852.686 339.561 863.159 347.424 866.548 346.624Z" fill="#0C3066"/>
<path d="M876.678 330.437C876.117 331.336 875.433 332.23 874.74 333.034C873.965 333.937 873.157 334.696 872.443 335.108C868.659 336.485 863.62 333.653 861.975 329.678C861.637 328.775 861.53 327.707 861.621 326.586C861.847 324.318 862.771 321.799 863.517 320.076C863.534 320.039 863.546 320.001 863.546 320.001C863.872 319.268 864.123 318.723 864.267 318.348C864.296 318.274 864.309 318.237 864.362 318.212C864.47 318.043 864.498 317.969 864.498 317.969C866.049 315.606 878.508 323.432 878.092 327.081C877.952 328.012 877.403 329.216 876.678 330.437Z" fill="#F7A594"/>
<path d="M856.557 321.317L877.568 335.228C877.25 337.413 878.145 339.685 880.095 341.009C882.041 342.328 884.486 342.32 886.395 341.219L881.983 338.226L884.985 333.802L889.322 336.741C889.557 334.622 888.667 332.441 886.774 331.159C884.828 329.839 882.383 329.848 880.474 330.948L859.463 317.037C859.777 314.852 858.882 312.58 856.936 311.257C854.986 309.937 852.545 309.946 850.632 311.046L855.048 314.04L852.046 318.464L847.708 315.52C847.473 317.643 848.364 319.82 850.256 321.103C852.203 322.426 854.643 322.418 856.557 321.317Z" fill="#D9D9D9"/>
<path d="M863.684 319.585C863.684 319.585 861.899 322.809 868.339 326.747C874.779 330.684 877.179 329.542 877.834 327.934C878.486 326.33 865.147 314.74 863.684 319.585Z" fill="#F7A594"/>
<path d="M861.694 329.703C860.341 327.394 858.882 322.772 860.329 320.48C862.102 317.68 869.651 321.667 871.531 323.003C872.108 325.411 868.389 325.489 866.328 324.084C869.131 328.165 870.014 332.474 867.882 332.68C865.755 332.886 863.05 332.012 861.694 329.703Z" fill="#F7A594"/>
<path d="M868.2 342.395C866.522 343.607 857.579 337.522 859.15 335.811L866.456 327.288L874.059 332.817L868.2 342.395Z" fill="#F7A594"/>
<path d="M869.011 330.499C868.908 330.499 868.818 330.42 868.813 330.313C868.628 327.6 866.315 324.417 866.162 324.207C866.15 324.194 866.146 324.186 866.146 324.186C866.088 324.095 866.109 323.972 866.2 323.91C866.286 323.852 866.41 323.869 866.472 323.955C866.476 323.959 866.48 323.964 866.488 323.976C866.554 324.054 867.111 324.652 868.974 324.78C869.964 324.85 870.644 324.697 870.995 324.335C871.254 324.067 871.362 323.663 871.32 323.102C867.935 320.669 863.66 319.799 863.618 319.791C863.507 319.77 863.437 319.667 863.462 319.556C863.482 319.449 863.585 319.379 863.697 319.399C863.738 319.408 868.162 320.306 871.63 322.834C871.675 322.867 871.704 322.92 871.712 322.974C871.782 323.708 871.642 324.244 871.283 324.615C870.838 325.073 870.071 325.254 868.945 325.18C868.084 325.118 867.469 324.961 867.045 324.788C867.803 325.971 869.069 328.223 869.209 330.284C869.218 330.396 869.135 330.49 869.024 330.499H869.011Z" fill="#CC6B58"/>
<path d="M700.905 370.32C701.169 369.302 701.536 368.25 701.932 367.281C702.369 366.197 702.859 365.24 703.354 364.642C706.141 362.247 710.846 363.525 713.031 366.861C713.501 367.628 713.814 368.621 713.979 369.722C714.28 371.957 714.066 374.628 713.827 376.496C713.823 376.533 713.819 376.575 713.819 376.575C713.711 377.366 713.625 377.96 713.588 378.36C713.579 378.438 713.575 378.479 713.538 378.517C713.489 378.71 713.481 378.793 713.481 378.793C712.726 381.493 700.913 377.548 700.472 373.936C700.39 373.004 700.579 371.693 700.905 370.32Z" fill="#F7A594"/>
<path d="M713.244 366.74C714.84 368.567 717.012 372.574 716.324 375.18C715.483 378.367 708.49 376.697 706.672 375.955C705.686 373.811 708.696 372.681 710.671 373.44C707.521 370.327 705.884 366.456 707.571 365.652C709.261 364.848 711.648 364.918 713.244 366.74Z" fill="#F7A594"/>
<path d="M705.803 356.541C707.085 354.917 717.343 358.351 716.296 360.425L711.571 370.609L702.752 367.343L705.803 356.541Z" fill="#F7A594"/>
<path d="M760.92 345.379L733.205 333.826C733.811 339.293 722.411 359.57 715.768 362.889L705.465 358.593C698.014 353.592 712.606 313.541 721.681 307.913C735.728 297.04 782.071 324.479 782.071 324.479C797.71 333.871 782.842 356.952 760.92 345.379Z" fill="#FF708B"/>
<path d="M704.71 355.591C704.71 355.591 701.617 356.746 703.003 359.838C704.037 362.155 717.103 367.474 718.881 361.871C720.039 358.222 707.703 353.819 704.71 355.591Z" fill="#0C3066"/>
<path d="M807.269 308.274C809.962 310.505 811.57 313.329 810.246 315.72L805.694 322.948L796.669 337.206C793.915 341.84 776.582 328.518 779.348 323.859L793.082 306.336C795.255 302.362 802.796 304.522 807.269 308.274Z" fill="#F7A594"/>
<path d="M785.626 315.888C785.626 315.888 785.931 319.215 794.766 323.173C802.188 326.497 804.204 325.313 804.204 325.313C804.204 325.313 805.717 326.868 803.412 329.849C801.705 336.474 798.976 342.362 792.425 343.908C785.535 345.533 768.366 334.829 774.745 325.878C778.588 322.464 780.934 320.032 780.934 320.032C780.934 320.032 782.22 315.913 785.626 315.888Z" fill="#153566"/>
<path d="M807.253 308.269C809.945 310.5 811.553 313.324 810.229 315.716L804.47 324.824C797.477 322.078 795.712 310.669 795.712 310.669L807.253 308.269Z" fill="#F7785E"/>
<path d="M836.787 288.681C840.399 303.038 830.578 321.958 818.073 325.108C805.563 328.254 795.103 314.434 791.491 300.081C787.88 285.725 795.091 271.533 807.6 268.387C820.109 265.242 833.175 274.329 836.787 288.681Z" fill="#F7A594"/>
<path d="M791.327 298.869C810.232 295.352 827.421 294 837.143 289.415C837.143 289.415 840.21 296.152 837.398 300.444C816.532 310.471 791.736 300.345 791.736 300.345L791.327 298.869Z" fill="#0E0E0E"/>
<path d="M798.694 304.753C800.132 307.499 799.234 309.491 796.236 310.187C793.853 310.74 790.843 309.318 789.4 306.572C787.961 303.826 788.856 301.381 791.021 300.247C793.185 299.109 797.25 302.011 798.694 304.753Z" fill="#F7A594"/>
<path d="M823.227 311.991C822.32 311.991 821.244 311.657 820.155 310.738C820.023 310.626 820.007 310.428 820.118 310.292C820.229 310.16 820.431 310.144 820.563 310.255C822.097 311.55 823.602 311.513 824.422 311.088C825.144 310.713 825.519 310.024 825.449 309.191C825.4 308.639 825.198 308.227 824.822 307.934C823.928 307.225 822.386 307.447 822.369 307.447C822.254 307.468 822.138 307.418 822.068 307.328C822.002 307.233 821.986 307.109 822.035 307.002L822.761 305.439C822.835 305.279 823.025 305.213 823.177 305.283C823.338 305.357 823.408 305.547 823.334 305.703L822.835 306.784C823.462 306.767 824.476 306.854 825.21 307.435C825.725 307.839 826.014 308.412 826.076 309.138C826.171 310.222 825.659 311.158 824.715 311.649C824.311 311.859 823.804 311.991 823.227 311.991Z" fill="#803221"/>
<path d="M789.294 298.835C804.628 286.421 814.919 281.329 833.292 277.672C833.292 277.672 815.125 252.574 793.628 266.371C775.334 278.113 789.294 298.835 789.294 298.835Z" fill="#FF708B"/>
<path d="M833.897 281.03C822.08 280.444 792.65 300.21 789.009 305.616C787.74 306.927 782.858 298.949 786.527 293.762C788.746 290.624 809.46 275.386 828.917 272.747C834.701 271.963 836.82 280.865 833.897 281.03Z" fill="#FF708B"/>
<path d="M798.811 268.037C800.267 271.27 797.401 275.714 792.412 277.957C787.424 280.204 782.2 279.4 780.744 276.168C779.289 272.931 782.154 268.491 787.139 266.244C792.128 263.997 797.356 264.801 798.811 268.037Z" fill="#FF708B"/>
<path d="M786.479 294.376C786.314 294.376 786.154 294.31 786.03 294.187C785.783 293.939 785.787 293.539 786.034 293.292C786.215 293.115 804.534 275.171 828.79 272.1C829.136 272.058 829.45 272.302 829.495 272.648C829.541 272.994 829.293 273.312 828.947 273.353C805.128 276.371 787.102 294.014 786.925 294.191C786.801 294.315 786.64 294.376 786.479 294.376Z" fill="#2257A8"/>
<path d="M806.129 291.992C806.129 291.992 808.001 294.659 811.382 292.181C814.763 289.703 814.074 288.969 814.074 288.969C814.074 288.969 818.239 293.558 823.805 289.765C826.637 287.836 825.499 284.578 825.499 284.578C833.552 289.563 846.098 285.869 844.535 277.528C840.602 269.356 833.667 274.848 831.878 277.899C830.055 277.858 813.221 284.376 806.129 291.992Z" fill="#BD4A31"/>
<path d="M818.597 299.591C818.605 301.401 817.145 302.873 815.335 302.881C813.525 302.89 812.053 301.43 812.045 299.62C812.041 298.754 812.375 297.967 812.919 297.377C814.791 295.93 817.846 296.12 818.514 298.87C818.568 299.105 818.597 299.344 818.597 299.591Z" fill="white"/>
<path d="M814.981 299.532C814.985 300.101 814.573 300.558 814.066 300.562C813.554 300.562 813.142 300.105 813.138 299.54C813.138 298.975 813.546 298.517 814.057 298.513C814.565 298.513 814.981 298.967 814.981 299.532Z" fill="#0E0E0E"/>
<path d="M834.396 297.122C834.405 298.875 832.986 300.301 831.234 300.309C829.989 300.318 828.904 299.604 828.381 298.557C826.921 296.03 829.263 292.781 832.834 294.397C833.761 294.945 834.392 295.96 834.396 297.122Z" fill="white"/>
<path d="M830.441 297.268C830.441 297.825 830.033 298.278 829.521 298.278C829.014 298.282 828.598 297.833 828.598 297.276C828.594 296.72 829.006 296.266 829.513 296.266C830.024 296.262 830.437 296.711 830.441 297.268Z" fill="#0E0E0E"/>
<path d="M809.751 318.062C809.417 313.906 819.927 314.862 821.597 316.627C823.266 318.396 810.085 322.214 809.751 318.062Z" fill="#BD3831"/>
<path d="M768.946 376.595L742.328 375.041L744.27 341.813L770.888 343.367L768.946 376.595Z" fill="#D6D6D6"/>
<path d="M767.785 349.726L751.758 348.79L751.898 346.362L767.925 347.298L767.785 349.726Z" fill="#B3B3B3"/>
<path d="M767.476 355.429L746.712 354.217L746.853 351.788L767.62 353.004L767.476 355.429Z" fill="#B3B3B3"/>
<path d="M767.147 361.125L746.384 359.913L746.524 357.488L767.292 358.701L767.147 361.125Z" fill="#B3B3B3"/>
<path d="M766.823 366.829L746.055 365.613L746.195 363.189L766.963 364.401L766.823 366.829Z" fill="#B3B3B3"/>
<path d="M766.494 372.529L745.726 371.317L745.87 368.889L766.634 370.105L766.494 372.529Z" fill="#B3B3B3"/>
<path d="M771.447 383.947L747.921 371.392L763.593 342.032L787.115 354.583L771.447 383.947Z" fill="white"/>
<path d="M781.703 359.078L767.54 351.521L768.686 349.377L782.849 356.934L781.703 359.078Z" fill="#D6D6D6"/>
<path d="M778.989 364.112L760.637 354.316L761.783 352.172L780.135 361.968L778.989 364.112Z" fill="#D6D6D6"/>
<path d="M776.355 369.151L758.003 359.358L759.149 357.214L777.501 367.007L776.355 369.151Z" fill="#D6D6D6"/>
<path d="M773.618 374.193L755.266 364.401L756.412 362.257L774.764 372.049L773.618 374.193Z" fill="#D6D6D6"/>
<path d="M770.983 379.24L752.632 369.443L753.778 367.299L772.13 377.092L770.983 379.24Z" fill="#D6D6D6"/>
<path d="M768.631 385.932L742.763 380.956L748.972 348.664L774.844 353.641L768.631 385.932Z" fill="white"/>
<path d="M770.952 359.501L755.375 356.503L755.829 354.145L771.406 357.142L770.952 359.501Z" fill="#D6D6D6"/>
<path d="M769.961 365.042L749.778 361.158L750.232 358.804L770.414 362.684L769.961 365.042Z" fill="#D6D6D6"/>
<path d="M768.868 370.582L748.685 366.698L749.139 364.34L769.321 368.223L768.868 370.582Z" fill="#D6D6D6"/>
<path d="M767.772 376.113L747.589 372.23L748.043 369.875L768.225 373.755L767.772 376.113Z" fill="#D6D6D6"/>
<path d="M766.679 381.653L746.496 377.769L746.95 375.411L767.132 379.295L766.679 381.653Z" fill="#D6D6D6"/>
<path d="M802.22 333.811C802.22 333.811 796.716 361.786 769.166 369.974C744.667 377.259 743.277 357.761 743.657 353.131C737.987 351.647 708.875 375.008 719.021 392.754C729.172 410.499 770.634 396.543 788.952 373.949C805.168 353.952 805.597 339.406 805.597 339.406C805.878 337.286 803.998 334.05 802.22 333.811Z" fill="#0D0D0D"/>
<path d="M645.019 371.433C636.884 371.664 627.224 362.964 627.224 362.964C639.577 360.672 647.031 356.524 650.486 350.034L669.296 362.556C664.27 367.285 653.15 371.202 645.019 371.433Z" fill="#8676FF"/>
<path d="M649.177 355.351L648.278 356.204L660.857 364.677C661.311 364.426 661.653 364.215 662.016 363.997L649.177 355.351Z" fill="white"/>
<path d="M645.095 358.311L657.32 366.413C657.762 366.215 658.215 366.021 658.619 365.823L646.213 357.598L645.095 358.311Z" fill="white"/>
<path d="M641.372 360.666L652.772 368.191C653.262 368.026 653.745 367.857 654.207 367.688L642.654 360.064L641.372 360.666Z" fill="white"/>
<path d="M636.874 362.261L647.821 369.571C648.369 369.447 648.864 369.299 649.392 369.163L638.474 361.873L636.874 362.261Z" fill="white"/>
<path d="M603.799 342.889C609.844 342.498 616.412 335.377 616.412 335.377C610.157 335.864 599.722 332.404 595.892 329.316L585.13 337.472C589.187 340.63 597.751 343.277 603.799 342.889Z" fill="#8676FF"/>
<path d="M875.269 329.688C872.21 329.688 867.839 326.826 867.604 326.67C867.51 326.608 867.485 326.484 867.547 326.389C867.608 326.299 867.732 326.274 867.823 326.336C867.897 326.381 875.104 331.11 877.211 328.521C877.281 328.434 877.405 328.422 877.491 328.492C877.574 328.562 877.59 328.686 877.52 328.773C876.984 329.432 876.184 329.688 875.269 329.688Z" fill="#CC6B58"/>
<path d="M773.645 237.375L767.835 240.883L750.659 215.774L759.317 210.544L773.645 237.375Z" fill="#F7370C"/>
<path d="M778.121 243.711C779.259 245.596 778.653 248.047 776.768 249.186C774.884 250.325 772.431 249.72 771.293 247.835C770.155 245.95 770.761 243.499 772.645 242.36C774.53 241.222 776.983 241.827 778.121 243.711Z" fill="#F7370C"/>
<path d="M768.464 281.185H679.29C678.932 281.185 678.639 280.892 678.639 280.529C678.639 280.171 678.932 279.878 679.29 279.878H768.464C768.826 279.878 769.119 280.171 769.119 280.529C769.119 280.892 768.826 281.185 768.464 281.185Z" fill="#267BFF"/>
<path d="M705.979 401.492H562.547C562.184 401.492 561.891 401.199 561.891 400.841C561.891 400.478 562.184 400.185 562.547 400.185H705.979C706.338 400.185 706.631 400.478 706.631 400.841C706.631 401.199 706.338 401.492 705.979 401.492Z" fill="#267BFF"/>
<path d="M679.336 295.052H655.175C654.812 295.052 654.519 294.759 654.519 294.396C654.519 294.038 654.812 293.745 655.175 293.745H679.336C679.699 293.745 679.992 294.038 679.992 294.396C679.992 294.759 679.699 295.052 679.336 295.052Z" fill="#267BFF"/>
<path d="M772.29 295.052H689.92C689.561 295.052 689.269 294.759 689.269 294.396C689.269 294.038 689.561 293.745 689.92 293.745H772.29C772.653 293.745 772.946 294.038 772.946 294.396C772.946 294.759 772.653 295.052 772.29 295.052Z" fill="#267BFF"/>
</svg>
